<svg width="20" height="20" viewBox="0 0 20 20" fill="none" xmlns="http://www.w3.org/2000/svg">
<path d="M9.99992 10C9.08325 10 8.29853 9.67365 7.64575 9.02087C6.99297 8.3681 6.66658 7.58337 6.66658 6.66671C6.66658 5.75004 6.99297 4.96532 7.64575 4.31254C8.29853 3.65976 9.08325 3.33337 9.99992 3.33337C10.9166 3.33337 11.7013 3.65976 12.3541 4.31254C13.0069 4.96532 13.3333 5.75004 13.3333 6.66671C13.3333 7.58337 13.0069 8.3681 12.3541 9.02087C11.7013 9.67365 10.9166 10 9.99992 10ZM3.33325 16.6667V14.3334C3.33325 13.8612 3.45478 13.4271 3.69784 13.0313C3.94089 12.6355 4.26381 12.3334 4.66659 12.125C5.5277 11.6945 6.4027 11.3716 7.29158 11.1563C8.18047 10.941 9.08325 10.8334 9.99992 10.8334C10.9166 10.8334 11.8194 10.941 12.7083 11.1563C13.5971 11.3716 14.4721 11.6945 15.3333 12.125C15.736 12.3334 16.0589 12.6355 16.302 13.0313C16.5451 13.4271 16.6666 13.8612 16.6666 14.3334V16.6667H3.33325ZM4.99992 15H14.9999V14.3334C14.9999 14.1806 14.9617 14.0417 14.8853 13.9167C14.8089 13.7917 14.7083 13.6945 14.5833 13.625C13.8333 13.25 13.0763 12.9688 12.3124 12.7813C11.5485 12.5938 10.7777 12.5 9.99992 12.5C9.22214 12.5 8.45131 12.5938 7.68742 12.7813C6.92353 12.9688 6.16659 13.25 5.41659 13.625C5.29159 13.6945 5.19089 13.7917 5.1145 13.9167C5.03811 14.0417 4.99992 14.1806 4.99992 14.3334V15ZM9.99992 8.33337C10.4583 8.33337 10.8506 8.17018 11.177 7.84379C11.5034 7.5174 11.6666 7.12504 11.6666 6.66671C11.6666 6.20837 11.5034 5.81601 11.177 5.48962C10.8506 5.16324 10.4583 5.00004 9.99992 5.00004C9.54158 5.00004 9.14922 5.16324 8.82283 5.48962C8.49645 5.81601 8.33325 6.20837 8.33325 6.66671C8.33325 7.12504 8.49645 7.5174 8.82283 7.84379C9.14922 8.17018 9.54158 8.33337 9.99992 8.33337Z" fill="white"/>
</svg>
